<?xml version="1.0" ?>
<svg xmlns="http://www.w3.org/2000/svg"
     xmlns:xlink="http://www.w3.org/1999/xlink"
     width="2.5in" height="3.5in"
     viewBox="0 0 80 112"  >
   
  <defs>
        <circle id="level0" cx="0" cy="0" r="1" fill="#852572"/>
        
        <g id ="midbranch" fill="#852572">
            <circle cx="0.75" cy="0" r="0.25" />
            <circle cx="0.4166666666666667" cy="0" r="0.08333333333333333" />
            <circle cx="0.2916666666666667" cy="0" r="0.041666666666666664" />
            <circle cx="0.225" cy="0" r="0.024999999999999998" />
            <circle cx="0.18333333333333335" cy="0" r="0.016666666666666666" />
            <circle cx="0.15476190476190477" cy="0" r="0.011904761904761906" />
            <circle cx="0.13392857142857142" cy="0" r="0.00892857142857143" />
            <circle cx="0.11805555555555555" cy="0" r="0.006944444444444446" />
            <circle cx="0.10555555555555554" cy="0" r="0.005555555555555557" />
            <circle cx="0.09545454545454543" cy="0" r="0.004545454545454547" />
            <circle cx="0.0871212121212121" cy="0" r="0.0037878787878787884" />
            <circle cx="0.08012820512820511" cy="0" r="0.003205128205128205" />
            <circle cx="0.07417582417582415" cy="0" r="0.0027472527472527475" />
            <circle cx="0.06904761904761901" cy="0" r="0.002380952380952381" />
            <circle cx="0.06458333333333328" cy="0" r="0.0020833333333333337" />
            <circle cx="0.060661764705882304" cy="0" r="0.001838235294117647" />
            <circle cx="0.05718954248366008" cy="0" r="0.0016339869281045748" />
            <circle cx="0.05409356725146194" cy="0" r="0.001461988304093567" />
            <circle cx="0.05131578947368416" cy="0" r="0.0013157894736842103" />
            <circle cx="0.04880952380952376" cy="0" r="0.0011904761904761904" />
            <circle cx="0.04653679653679649" cy="0" r="0.001082251082251082" />
            <circle cx="0.04446640316205529" cy="0" r="0.0009881422924901185" />
            <circle cx="0.042572463768115895" cy="0" r="0.0009057971014492752" />
            <circle cx="0.04083333333333329" cy="0" r="0.0008333333333333332" />
            <circle cx="0.03923076923076919" cy="0" r="0.0007692307692307693" />
            <circle cx="0.0377492877492877" cy="0" r="0.0007122507122507123" />
            <circle cx="0.036375661375661325" cy="0" r="0.0006613756613756613" />
            <circle cx="0.035098522167487635" cy="0" r="0.0006157635467980296" />
            <circle cx="0.03390804597701144" cy="0" r="0.0005747126436781609" />
            <circle cx="0.03279569892473114" cy="0" r="0.0005376344086021505" />
            <circle cx="0.031754032258064474" cy="0" r="0.0005040322580645161" />
            <circle cx="0.03077651515151511" cy="0" r="0.0004734848484848485" />
            <circle cx="0.029857397504456287" cy="0" r="0.00044563279857397507" />
            <circle cx="0.02899159663865542" cy="0" r="0.00042016806722689073" />
            <circle cx="0.028174603174603137" cy="0" r="0.00039682539682539677" />
            <circle cx="0.027402402402402368" cy="0" r="0.0003753753753753753" />
            <circle cx="0.026671408250355584" cy="0" r="0.0003556187766714081" />
            <circle cx="0.02597840755735489" cy="0" r="0.00033738191632928463" />
            <circle cx="0.025320512820512786" cy="0" r="0.0003205128205128204" />
            <circle cx="0.02469512195121948" cy="0" r="0.0003048780487804877" />
            <circle cx="0.024099883855981382" cy="0" r="0.0002903600464576074" />
            <circle cx="0.023532668881506055" cy="0" r="0.00027685492801771865" />
            <circle cx="0.022991543340380515" cy="0" r="0.00026427061310782237" />
            <circle cx="0.02247474747474744" cy="0" r="0.0002525252525252525" />
            <circle cx="0.02198067632850238" cy="0" r="0.0002415458937198068" />
            <circle cx="0.021507863089731693" cy="0" r="0.0002312673450508789" />
            <circle cx="0.021054964539007053" cy="0" r="0.00022163120567375897" />
            <circle cx="0.02062074829931969" cy="0" r="0.00021258503401360552" />
            <circle cx="0.020204081632653022" cy="0" r="0.0002040816326530613" />
            <circle cx="0.019803921568627415" cy="0" r="0.00019607843137254915" />
            <circle cx="0.019419306184012032" cy="0" r="0.0001885369532428357" />
        </g>
        <g id ="sidebranch" fill="#852572">
            <circle cx="0.0" cy="1.0" r="1.0" />
            <circle cx="0.75" cy="0.0" r="0.25" />
            <circle cx="0.8888888888888888" cy="-0.33333333333333337" r="0.1111111111111111" />
            <circle cx="0.9375" cy="-0.5" r="0.0625" />
            <circle cx="0.96" cy="-0.6" r="0.04" />
            <circle cx="0.9722222222222222" cy="-0.6666666666666667" r="0.027777777777777776" />
            <circle cx="0.9795918367346939" cy="-0.7142857142857143" r="0.02040816326530612" />
            <circle cx="0.984375" cy="-0.75" r="0.015625" />
            <circle cx="0.9876543209876543" cy="-0.7777777777777778" r="0.012345679012345678" />
            <circle cx="0.99" cy="-0.8" r="0.01" />
            <circle cx="0.9917355371900827" cy="-0.8181818181818181" r="0.008264462809917356" />
            <circle cx="0.9930555555555556" cy="-0.8333333333333334" r="0.006944444444444444" />
            <circle cx="0.9940828402366864" cy="-0.8461538461538461" r="0.005917159763313609" />
            <circle cx="0.9948979591836735" cy="-0.8571428571428572" r="0.00510204081632653" />
            <circle cx="0.9955555555555555" cy="-0.8666666666666667" r="0.0044444444444444444" />
            <circle cx="0.99609375" cy="-0.875" r="0.00390625" />
            <circle cx="0.9965397923875432" cy="-0.8823529411764706" r="0.0034602076124567475" />
            <circle cx="0.9969135802469136" cy="-0.8888888888888888" r="0.0030864197530864196" />
            <circle cx="0.997229916897507" cy="-0.8947368421052632" r="0.002770083102493075" />
            <circle cx="0.9975" cy="-0.9" r="0.0025" />
            <circle cx="0.9977324263038548" cy="-0.9047619047619048" r="0.0022675736961451248" />
            <circle cx="0.9979338842975206" cy="-0.9090909090909091" r="0.002066115702479339" />
            <circle cx="0.998109640831758" cy="-0.9130434782608696" r="0.001890359168241966" />
            <circle cx="0.9982638888888888" cy="-0.9166666666666666" r="0.001736111111111111" />
            <circle cx="0.9984" cy="-0.92" r="0.0016" />
            <circle cx="0.9985207100591716" cy="-0.9230769230769231" r="0.0014792899408284023" />
            <circle cx="0.9986282578875172" cy="-0.9259259259259259" r="0.0013717421124828531" />
            <circle cx="0.9987244897959183" cy="-0.9285714285714286" r="0.0012755102040816326" />
            <circle cx="0.9988109393579072" cy="-0.9310344827586207" r="0.0011890606420927466" />
            <circle cx="0.9988888888888889" cy="-0.9333333333333333" r="0.0011111111111111111" />
            <circle cx="0.9989594172736732" cy="-0.935483870967742" r="0.001040582726326743" />
            <circle cx="0.9990234375" cy="-0.9375" r="0.0009765625" />
            <circle cx="0.9990817263544536" cy="-0.9393939393939394" r="0.0009182736455463728" />
            <circle cx="0.9991349480968859" cy="-0.9411764705882353" r="0.0008650519031141869" />
            <circle cx="0.9991836734693877" cy="-0.9428571428571428" r="0.0008163265306122449" />
            <circle cx="0.9992283950617284" cy="-0.9444444444444444" r="0.0007716049382716049" />
            <circle cx="0.9992695398100804" cy="-0.9459459459459459" r="0.0007304601899196494" />
            <circle cx="0.9993074792243767" cy="-0.9473684210526316" r="0.0006925207756232687" />
            <circle cx="0.9993425378040762" cy="-0.9487179487179487" r="0.0006574621959237344" />
            <circle cx="0.999375" cy="-0.95" r="0.000625" />
            <circle cx="0.9994051160023796" cy="-0.9512195121951219" r="0.000594883997620464" />
            <circle cx="0.9994331065759637" cy="-0.9523809523809523" r="0.0005668934240362812" />
            <circle cx="0.9994591671173607" cy="-0.9534883720930233" r="0.0005408328826392645" />
            <circle cx="0.9994834710743802" cy="-0.9545454545454546" r="0.0005165289256198347" />
            <circle cx="0.9995061728395062" cy="-0.9555555555555556" r="0.0004938271604938272" />
            <circle cx="0.9995274102079396" cy="-0.9565217391304348" r="0.0004725897920604915" />
            <circle cx="0.9995473064735174" cy="-0.9574468085106383" r="0.0004526935264825713" />
            <circle cx="0.9995659722222222" cy="-0.9583333333333334" r="0.00043402777777777775" />
            <circle cx="0.9995835068721366" cy="-0.9591836734693877" r="0.00041649312786339027" />
        </g>
        <g id ="fordbranch" fill="#852572">
            <circle cx="0.75" cy="0.0" r="0.25" />
            <circle cx="0.8888888888888888" cy="-0.33333333333333337" r="0.1111111111111111" />
            <circle cx="0.8888888888888888" cy="0.33333333333333326" r="0.1111111111111111" />
            <circle cx="0.9375" cy="-0.5" r="0.0625" />
            <circle cx="0.9375" cy="0.5" r="0.0625" />
            <circle cx="0.96" cy="-0.6" r="0.04" />
            <circle cx="0.96" cy="-0.19999999999999996" r="0.04" />
            <circle cx="0.96" cy="0.19999999999999996" r="0.04" />
            <circle cx="0.96" cy="0.6000000000000001" r="0.04" />
            <circle cx="0.9722222222222222" cy="-0.6666666666666667" r="0.027777777777777776" />
            <circle cx="0.9722222222222222" cy="0.6666666666666667" r="0.027777777777777776" />
            <circle cx="0.9795918367346939" cy="-0.7142857142857143" r="0.02040816326530612" />
            <circle cx="0.9795918367346939" cy="-0.4285714285714286" r="0.02040816326530612" />
            <circle cx="0.9795918367346939" cy="-0.1428571428571429" r="0.02040816326530612" />
            <circle cx="0.9795918367346939" cy="0.1428571428571428" r="0.02040816326530612" />
            <circle cx="0.9795918367346939" cy="0.4285714285714286" r="0.02040816326530612" />
            <circle cx="0.9795918367346939" cy="0.7142857142857142" r="0.02040816326530612" />
            <circle cx="0.984375" cy="-0.75" r="0.015625" />
            <circle cx="0.984375" cy="-0.25" r="0.015625" />
            <circle cx="0.984375" cy="0.25" r="0.015625" />
            <circle cx="0.984375" cy="0.75" r="0.015625" />
            <circle cx="0.9876543209876543" cy="-0.7777777777777778" r="0.012345679012345678" />
            <circle cx="0.9876543209876543" cy="-0.5555555555555556" r="0.012345679012345678" />
            <circle cx="0.9876543209876543" cy="-0.11111111111111116" r="0.012345679012345678" />
            <circle cx="0.9876543209876543" cy="0.11111111111111116" r="0.012345679012345678" />
            <circle cx="0.9876543209876543" cy="0.5555555555555556" r="0.012345679012345678" />
            <circle cx="0.9876543209876543" cy="0.7777777777777777" r="0.012345679012345678" />
            <circle cx="0.99" cy="-0.8" r="0.01" />
            <circle cx="0.99" cy="-0.4" r="0.01" />
            <circle cx="0.99" cy="0.3999999999999999" r="0.01" />
            <circle cx="0.99" cy="0.8" r="0.01" />
            <circle cx="0.9917355371900827" cy="-0.8181818181818181" r="0.008264462809917356" />
            <circle cx="0.9917355371900827" cy="-0.6363636363636364" r="0.008264462809917356" />
            <circle cx="0.9917355371900827" cy="-0.4545454545454546" r="0.008264462809917356" />
            <circle cx="0.9917355371900827" cy="-0.2727272727272727" r="0.008264462809917356" />
            <circle cx="0.9917355371900827" cy="-0.09090909090909094" r="0.008264462809917356" />
            <circle cx="0.9917355371900827" cy="0.09090909090909083" r="0.008264462809917356" />
            <circle cx="0.9917355371900827" cy="0.2727272727272727" r="0.008264462809917356" />
            <circle cx="0.9917355371900827" cy="0.4545454545454546" r="0.008264462809917356" />
            <circle cx="0.9917355371900827" cy="0.6363636363636365" r="0.008264462809917356" />
            <circle cx="0.9917355371900827" cy="0.8181818181818181" r="0.008264462809917356" />
            <circle cx="0.9930555555555556" cy="-0.8333333333333334" r="0.006944444444444444" />
            <circle cx="0.9930555555555556" cy="-0.16666666666666663" r="0.006944444444444444" />
            <circle cx="0.9930555555555556" cy="0.16666666666666674" r="0.006944444444444444" />
            <circle cx="0.9930555555555556" cy="0.8333333333333333" r="0.006944444444444444" />
            <circle cx="0.9940828402366864" cy="-0.8461538461538461" r="0.005917159763313609" />
            <circle cx="0.9940828402366864" cy="-0.6923076923076923" r="0.005917159763313609" />
            <circle cx="0.9940828402366864" cy="-0.5384615384615384" r="0.005917159763313609" />
            <circle cx="0.9940828402366864" cy="-0.3846153846153846" r="0.005917159763313609" />
            <circle cx="0.9940828402366864" cy="-0.23076923076923073" r="0.005917159763313609" />
            <circle cx="0.9940828402366864" cy="-0.07692307692307687" r="0.005917159763313609" />
            <circle cx="0.9940828402366864" cy="0.07692307692307687" r="0.005917159763313609" />
            <circle cx="0.9940828402366864" cy="0.23076923076923084" r="0.005917159763313609" />
            <circle cx="0.9940828402366864" cy="0.3846153846153846" r="0.005917159763313609" />
            <circle cx="0.9940828402366864" cy="0.5384615384615385" r="0.005917159763313609" />
            <circle cx="0.9940828402366864" cy="0.6923076923076923" r="0.005917159763313609" />
            <circle cx="0.9940828402366864" cy="0.8461538461538463" r="0.005917159763313609" />
            <circle cx="0.9948979591836735" cy="-0.8571428571428572" r="0.00510204081632653" />
            <circle cx="0.9948979591836735" cy="-0.5714285714285714" r="0.00510204081632653" />
            <circle cx="0.9948979591836735" cy="-0.2857142857142857" r="0.00510204081632653" />
            <circle cx="0.9948979591836735" cy="0.2857142857142858" r="0.00510204081632653" />
            <circle cx="0.9948979591836735" cy="0.5714285714285714" r="0.00510204081632653" />
            <circle cx="0.9948979591836735" cy="0.8571428571428572" r="0.00510204081632653" />
            <circle cx="0.9955555555555555" cy="-0.8666666666666667" r="0.0044444444444444444" />
            <circle cx="0.9955555555555555" cy="-0.7333333333333334" r="0.0044444444444444444" />
            <circle cx="0.9955555555555555" cy="-0.4666666666666667" r="0.0044444444444444444" />
            <circle cx="0.9955555555555555" cy="-0.06666666666666665" r="0.0044444444444444444" />
            <circle cx="0.9955555555555555" cy="0.06666666666666665" r="0.0044444444444444444" />
            <circle cx="0.9955555555555555" cy="0.46666666666666656" r="0.0044444444444444444" />
            <circle cx="0.9955555555555555" cy="0.7333333333333334" r="0.0044444444444444444" />
            <circle cx="0.9955555555555555" cy="0.8666666666666667" r="0.0044444444444444444" />
            <circle cx="0.99609375" cy="-0.875" r="0.00390625" />
            <circle cx="0.99609375" cy="-0.625" r="0.00390625" />
            <circle cx="0.99609375" cy="-0.375" r="0.00390625" />
            <circle cx="0.99609375" cy="-0.125" r="0.00390625" />
            <circle cx="0.99609375" cy="0.125" r="0.00390625" />
            <circle cx="0.99609375" cy="0.375" r="0.00390625" />
            <circle cx="0.99609375" cy="0.625" r="0.00390625" />
            <circle cx="0.99609375" cy="0.875" r="0.00390625" />
            <circle cx="0.9965397923875432" cy="-0.8823529411764706" r="0.0034602076124567475" />
            <circle cx="0.9965397923875432" cy="-0.7647058823529411" r="0.0034602076124567475" />
            <circle cx="0.9965397923875432" cy="-0.6470588235294117" r="0.0034602076124567475" />
            <circle cx="0.9965397923875432" cy="-0.5294117647058824" r="0.0034602076124567475" />
            <circle cx="0.9965397923875432" cy="-0.4117647058823529" r="0.0034602076124567475" />
            <circle cx="0.9965397923875432" cy="-0.2941176470588235" r="0.0034602076124567475" />
            <circle cx="0.9965397923875432" cy="-0.17647058823529416" r="0.0034602076124567475" />
            <circle cx="0.9965397923875432" cy="-0.05882352941176472" r="0.0034602076124567475" />
            <circle cx="0.9965397923875432" cy="0.05882352941176472" r="0.0034602076124567475" />
            <circle cx="0.9965397923875432" cy="0.17647058823529416" r="0.0034602076124567475" />
            <circle cx="0.9965397923875432" cy="0.2941176470588236" r="0.0034602076124567475" />
            <circle cx="0.9965397923875432" cy="0.41176470588235303" r="0.0034602076124567475" />
            <circle cx="0.9965397923875432" cy="0.5294117647058822" r="0.0034602076124567475" />
            <circle cx="0.9965397923875432" cy="0.6470588235294117" r="0.0034602076124567475" />
            <circle cx="0.9965397923875432" cy="0.7647058823529411" r="0.0034602076124567475" />
            <circle cx="0.9965397923875432" cy="0.8823529411764706" r="0.0034602076124567475" />
            <circle cx="0.9969135802469136" cy="-0.8888888888888888" r="0.0030864197530864196" />
            <circle cx="0.9969135802469136" cy="-0.4444444444444444" r="0.0030864197530864196" />
            <circle cx="0.9969135802469136" cy="-0.2222222222222222" r="0.0030864197530864196" />
            <circle cx="0.9969135802469136" cy="0.22222222222222232" r="0.0030864197530864196" />
            <circle cx="0.9969135802469136" cy="0.4444444444444444" r="0.0030864197530864196" />
            <circle cx="0.9969135802469136" cy="0.8888888888888888" r="0.0030864197530864196" />
            <circle cx="0.997229916897507" cy="-0.8947368421052632" r="0.002770083102493075" />
            <circle cx="0.997229916897507" cy="-0.7894736842105263" r="0.002770083102493075" />
            <circle cx="0.997229916897507" cy="-0.6842105263157895" r="0.002770083102493075" />
            <circle cx="0.997229916897507" cy="-0.5789473684210527" r="0.002770083102493075" />
            <circle cx="0.997229916897507" cy="-0.4736842105263158" r="0.002770083102493075" />
            <circle cx="0.997229916897507" cy="-0.368421052631579" r="0.002770083102493075" />
            <circle cx="0.997229916897507" cy="-0.26315789473684215" r="0.002770083102493075" />
            <circle cx="0.997229916897507" cy="-0.1578947368421053" r="0.002770083102493075" />
            <circle cx="0.997229916897507" cy="-0.052631578947368474" r="0.002770083102493075" />
            <circle cx="0.997229916897507" cy="0.05263157894736836" r="0.002770083102493075" />
            <circle cx="0.997229916897507" cy="0.1578947368421053" r="0.002770083102493075" />
            <circle cx="0.997229916897507" cy="0.26315789473684204" r="0.002770083102493075" />
            <circle cx="0.997229916897507" cy="0.368421052631579" r="0.002770083102493075" />
            <circle cx="0.997229916897507" cy="0.4736842105263157" r="0.002770083102493075" />
            <circle cx="0.997229916897507" cy="0.5789473684210527" r="0.002770083102493075" />
            <circle cx="0.997229916897507" cy="0.6842105263157894" r="0.002770083102493075" />
            <circle cx="0.997229916897507" cy="0.7894736842105263" r="0.002770083102493075" />
            <circle cx="0.997229916897507" cy="0.894736842105263" r="0.002770083102493075" /> 
        </g>
        <g id ="base">
            <!--<circle cx="0" cy="0" r="1" fill="#ddddff"/>-->
            <circle cx="0" cy="1" r="1" fill="#852572"/>
            <circle cx="0" cy="-1" r="1" fill="#852572"/>
            <use xlink:href="#midbranch" transform="scale(-1,1)"/>
            <use xlink:href="#midbranch" transform=""/>
            <use xlink:href="#sidebranch" transform="scale(-1,1)"/>
            <use xlink:href="#sidebranch" transform="scale(-1,-1)"/>
            <use xlink:href="#sidebranch" transform="scale(1,-1)"/>
            <use xlink:href="#sidebranch" transform=""/>
        </g>
        
  </defs>
    <rect    id="cardBackground"     width="79" height="111" x="0.5" y="0.5" rx="4" ry="4" fill="white" stroke="black"/>
    
    <use xlink:href="#base" transform="translate(40,56) scale(25)"/>
    <!--<use xlink:href="#base" transform="rotate(180 40 56)   translate(35,50) scale(10) "/>-->



    <use  xlink:href="#level0"     transform="translate(8 24) scale(4)"     preserveAspectRatio="none"    id="smallPipUL" fill="#88c4eb"/>
    <use  xlink:href="#level0"     transform="rotate(180 40 56)    translate(8 24) scale(4)"     preserveAspectRatio="none"    id="smallPipLR" fill="#88c4eb"/>
    <text    x="8"    y="16"     text-anchor="middle"     fill='#852572'       lengthAdjust="spacingAndGlyphs"     font-weight="bold"   font-size="14"     style="font-family:'CMU Serif';"> ∞</text>
    <text    x="8"    y="16"     text-anchor="middle"     fill='#852572'      lengthAdjust="spacingAndGlyphs"     font-weight="bold"   font-size="14"     style="font-family:'CMU Serif';"    transform="rotate(180 40 56)"  > ∞</text>

   
</svg>
