<?xml version="1.0" ?>
<svg xmlns="http://www.w3.org/2000/svg"
     xmlns:xlink="http://www.w3.org/1999/xlink"
     width="2.5in" height="3.5in"
     viewBox="0 0 80 112"  >
   
  <defs>
        <path id="level0" fill="#286a36"  d="M 0.99834346,0 C 0.59041697,0.00869986 0.40772002,0.46785887 0.70834834,0.82455292 c 0.0444659,0.0512325 0.0483325,0.0811986 -0.0318995,0.0318994 C 0.47441891,0.72015466 0.08485873,0.80908652 0.07035897,1.2295795 a 0.41662639,0.41662639 0 0 0 0.82455288,0.1150314 c 0.006767,-0.057032 0.0531658,-0.056066 0.0425326,0.025133 A 1.6916385,1.6916385 0 0 1 0.76054742,2 H 1.2438726 A 1.6916385,1.6916385 0 0 1 1.0669756,1.3697438 c -0.010633,-0.081199 0.035766,-0.082165 0.042533,-0.025133 A 0.41662639,0.41662639 0 0 0 1.9311612,1.2295795 C 1.9118282,0.81391977 1.522268,0.72498792 1.3192714,0.86128563 1.2390394,0.9105848 1.242906,0.88061864 1.2873719,0.82938618 1.5889669,0.47269212 1.4062699,0.01353311 0.99737681,0.00483325 Z"
       transform="translate(-1,-1)"/>
        <use  xlink:href="#star"     preserveAspectRatio="none"   id="level0old"  transform="translate(-1,-1)"/>

        <g id="level1">
            <use xlink:href="#level0" transform="matrix(1 0 0 1  0  0)" />
            <use xlink:href="#level0" transform="  translate(-1.4,0.25)   scale(0.5)    rotate (-90)  "   />
            <use xlink:href="#level0" transform="  translate(1.4,0.25)   scale(0.5)    rotate (90)  "    />
            <use xlink:href="#level0" transform="  translate(0,-1.5)   scale(0.6)    rotate (0)  "    />
        </g>
        <g id="level2">
            <use xlink:href="#level0" transform="matrix(1 0 0 1  0  0)" />
            <use xlink:href="#level1" transform="  translate(-1.4,0.25)   scale(0.5)    rotate (-90)  "   />
            <use xlink:href="#level1" transform="  translate(1.4,0.25)   scale(0.5)    rotate (90)  "    />
            <use xlink:href="#level1" transform="  translate(0,-1.5)   scale(0.6)    rotate (0)  "    />
        </g>
        <g id="level3">
            <use xlink:href="#level0" transform="matrix(1 0 0 1  0  0)" />
            <use xlink:href="#level2" transform="  translate(-1.4,0.25)   scale(0.5)    rotate (-90)  "   />
            <use xlink:href="#level2" transform="  translate(1.4,0.25)   scale(0.5)    rotate (90)  "    />
            <use xlink:href="#level2" transform="  translate(0,-1.5)   scale(0.6)    rotate (0)  "    />
        </g>
        <g id="level4">
            <use xlink:href="#level0" transform="matrix(1 0 0 1  0  0)" />
            <use xlink:href="#level3" transform="  translate(-1.4,0.25)   scale(0.5)    rotate (-90)  "   />
            <use xlink:href="#level3" transform="  translate(1.4,0.25)   scale(0.5)    rotate (90)  "    />
            <use xlink:href="#level3" transform="  translate(0,-1.5)   scale(0.6)    rotate (0)  "    />
        </g>
        <g id="level5">
            <use xlink:href="#level0" transform="matrix(1 0 0 1  0  0)" />
            <use xlink:href="#level4" transform="  translate(-1.4,0.25)   scale(0.5)    rotate (-90)  "   />
            <use xlink:href="#level4" transform="  translate(1.4,0.25)   scale(0.5)    rotate (90)  "    />
            <use xlink:href="#level4" transform="  translate(0,-1.5)   scale(0.6)    rotate (0)  "    />
        </g>
        <g id="level6">
            <use xlink:href="#level0" transform="matrix(1 0 0 1  0  0)" />
            <use xlink:href="#level5" transform="  translate(-1.4,0.25)   scale(0.5)    rotate (-90)  "   />
            <use xlink:href="#level5" transform="  translate(1.4,0.25)   scale(0.5)    rotate (90)  "    />
            <use xlink:href="#level5" transform="  translate(0,-1.5)   scale(0.6)    rotate (0)  "    />
        </g>
        <g id="level7">
            <use xlink:href="#level0" transform="matrix(1 0 0 1  0  0)" />
            <use xlink:href="#level6" transform="  translate(-1.4,0.25)   scale(0.5)    rotate (-90)  "   />
            <use xlink:href="#level6" transform="  translate(1.4,0.25)   scale(0.5)    rotate (90)  "    />
            <use xlink:href="#level6" transform="  translate(0,-1.5)   scale(0.6)    rotate (0)  "    />
        </g>
        <g id="level8">
            <use xlink:href="#level0" transform="matrix(1 0 0 1  0  0)" />
            <use xlink:href="#level7" transform="  translate(-1.4,0.25)   scale(0.5)    rotate (-90)  "   />
            <use xlink:href="#level7" transform="  translate(1.4,0.25)   scale(0.5)    rotate (90)  "    />
            <use xlink:href="#level7" transform="  translate(0,-1.5)   scale(0.6)    rotate (0)  "    />
        </g>
        <g id ="base">
            <use xlink:href="#level0" transform="matrix(1 0 0 1  0  0)" />
            <use xlink:href="#level6" transform="rotate(0) translate(0,-1) scale(0.414121) " />
            <use xlink:href="#level6" transform="rotate(45) translate(0,-1) scale(0.414121) " />
            <use xlink:href="#level6" transform="rotate(90) translate(0,-1) scale(0.414121) " />
            <use xlink:href="#level6" transform="rotate(135) translate(0,-1) scale(0.414121) " />
            <use xlink:href="#level6" transform="rotate(180) translate(0,-1) scale(0.414121) " />
            <use xlink:href="#level6" transform="rotate(225) translate(0,-1) scale(0.414121) " />
            <use xlink:href="#level6" transform="rotate(270) translate(0,-1) scale(0.414121) " />
            <use xlink:href="#level6" transform="rotate(315) translate(0,-1) scale(0.414121) " />
        </g>
        
  </defs>
    <rect    id="cardBackground"     width="79" height="111" x="0.5" y="0.5" rx="4" ry="4" fill="white" stroke="black"/>
    
    <use xlink:href="#level8" transform="translate(40,45) scale(10)"/>
    <use xlink:href="#level8" transform="rotate(180 40 56)      translate(40,45) scale(10) "/>



<use  xlink:href="#level0"     transform="translate(8 24) scale(4)"     preserveAspectRatio="none"    id="smallPipUL" />
        <use  xlink:href="#level0"     transform="rotate(180 40 56)    translate(8 24) scale(4)"     preserveAspectRatio="none"    id="smallPipLR" />
        <text    x="8"    y="16"     text-anchor="middle"     fill='#286a36'       lengthAdjust="spacingAndGlyphs"     font-weight="bold"   font-size="14"     style="font-family:'CMU Serif';"> ∞</text>
        <text    x="8"    y="16"     text-anchor="middle"     fill='#286a36'      lengthAdjust="spacingAndGlyphs"     font-weight="bold"   font-size="14"     style="font-family:'CMU Serif';"    transform="rotate(180 40 56)"  > ∞</text>

   
</svg>
