<?xml version="1.0" ?>
<svg xmlns="http://www.w3.org/2000/svg"
     xmlns:xlink="http://www.w3.org/1999/xlink"
     width="2.5in" height="3.5in"
     viewBox="0 0 80 112"  >
   
  <defs>
        <path id="level0"     
        d="M 1.0004662,0 C 0.61286927,0.54844961 0.20589253,0.86337207 0.19910958,1.2916667 c 0,0.1385659 0.0726744,0.373062 0.30620155,0.4186046 A 0.33042636,0.33042636 0 0 0 0.8715902,1.3662791 c 0,-0.050388 0.0523256,-0.04845 0.0523256,0.01938 A 1.4321705,1.4321705 0 0 1 0.74852818,2 H 1.2504662 A 1.4321705,1.4321705 0 0 1 1.0760476,1.3856589 c 0,-0.067829 0.053295,-0.069767 0.052326,-0.01938 a 0.33042636,0.33042636 0 0 0 0.366279,0.3439924 C 1.7281794,1.6647287 1.8027918,1.4302326 1.8008538,1.2916667 1.7940708,0.86337207 1.3832181,0.54844961 0.99949718,0 Z"
       transform="translate(-1,-1)"/>
        <use  xlink:href="#star"     preserveAspectRatio="none"   id="level0old"  transform="translate(-1,-1)"/>

        <g id="level0twist">
            <use xlink:href="#level0" transform=" rotate (0)  "   />
        </g>


        <g id ="branch">
            <use id ="leaf0"  xlink:href="#level0twist"    transform="translate(0,-36) scale(10)"/>
            <!--use id ="leaf0"  xlink:href="#level0twist"  transform="translate(0,-36.0)   scale(10.0)    rotate (0)"/-->
            <use id ="leaf1"  xlink:href="#leaf0"  transform="rotate(-20) scale(0.666666)" opacity="0.90"/>
            <use id ="leaf2"  xlink:href="#leaf1"  transform="rotate(-20) scale(0.666666)" opacity="0.90"/>
            <use id ="leaf3"  xlink:href="#leaf2"    transform="rotate(-20) scale(0.666666)" opacity="0.90"/>
            <use id ="leaf4"  xlink:href="#leaf3"    transform="rotate(-20) scale(0.666666)" opacity="0.90"/>
            <use id ="leaf5"  xlink:href="#leaf4"    transform="rotate(-20) scale(0.666666)" opacity="0.90"/>
            <use id ="leaf6"  xlink:href="#leaf5"    transform="rotate(-20) scale(0.666666)" opacity="0.90"/>
            <use id ="leaf7"  xlink:href="#leaf6"    transform="rotate(-20) scale(0.666666)" opacity="0.90"/>
            <use id ="leaf8"  xlink:href="#leaf7"    transform="rotate(-20) scale(0.666666)" opacity="0.90"/>
            <use id ="leaf9"  xlink:href="#leaf8"    transform="rotate(-20) scale(0.666666)" opacity="0.90"/>
            <use id ="leaf10"  xlink:href="#leaf9"    transform="rotate(-20) scale(0.666666)" opacity="0.90"/>
            <use id ="leaf11"  xlink:href="#leaf10"    transform="rotate(-20) scale(0.666666)" opacity="0.90"/>
            <use id ="leaf12"  xlink:href="#leaf11"    transform="rotate(-20) scale(0.666666)" opacity="0.90"/>
            <use id ="leaf13"  xlink:href="#leaf12"    transform="rotate(-20) scale(0.666666)" opacity="0.90"/>
            <use id ="leaf14"  xlink:href="#leaf13"    transform="rotate(-20) scale(0.666666)" opacity="0.90"/>
            <use id ="leaf15"  xlink:href="#leaf14"    transform="rotate(-20) scale(0.666666)" opacity="0.90"/>
        </g>
        



        <g id ="branches" fill="#262121">
            <use xlink:href="#branch"     fill="#262121"/>
            <use id="branch1"  xlink:href="#branch"  transform="rotate(32) scale(0.9221)" opacity="0.9"/>
            <use id="branch2"  xlink:href="#branch1"  transform="rotate(32) scale(0.9221)" opacity="0.9"/>
            <use id="branch3"  xlink:href="#branch2"  transform="rotate(32) scale(0.9221)" opacity="0.9"/>
            <use id="branch4"  xlink:href="#branch3"  transform="rotate(32) scale(0.9221)" opacity="0.9"/>
        </g>
        


  </defs>
    <rect    id="cardBackground"     width="79" height="111" x="0.5" y="0.5" rx="4" ry="4" fill="white" stroke="black"/>
    
    <use xlink:href="#branches" transform="translate(40,56) scale(1) rotate(0)"/>
     <use xlink:href="#branches" transform="translate(40,56) scale(1) rotate(180)"/>



<use  xlink:href="#level0"     transform="translate(8 24) scale(4)"     preserveAspectRatio="none"    id="smallPipUL" />
        <use  xlink:href="#level0"     transform="rotate(180 40 56)    translate(8 24) scale(4)"     preserveAspectRatio="none"    id="smallPipLR" />
        <text    x="8"    y="16"     text-anchor="middle"     fill='#262121'       lengthAdjust="spacingAndGlyphs"     font-weight="bold"   font-size="14"     style="font-family:'CMU Serif';"> ∞</text>
        <text    x="8"    y="16"     text-anchor="middle"     fill='#262121'      lengthAdjust="spacingAndGlyphs"     font-weight="bold"   font-size="14"     style="font-family:'CMU Serif';"    transform="rotate(180 40 56)"  > ∞</text>

   
</svg>
